<svg xmlns="http://www.w3.org/2000/svg" viewBox="0 0 70 40"><path fill="#0D232D" d="M14.214 23.073c-2.12 0-3.577-3.529-4.976-4.698v4.698H8V16.63h.505c1.764 0 3.45 3.716 4.966 4.896V16.63h1.239v6.443h-.496zm6.472.127c-2.096 0-3.391-1.406-3.391-3.349 0-1.972 1.3-3.351 3.391-3.351 2.092 0 3.39 1.38 3.39 3.351 0 1.943-1.289 3.35-3.39 3.35zm0-5.525c-1.358 0-2.07.892-2.07 2.182s.712 2.16 2.07 2.16c1.358 0 2.08-.872 2.08-2.16 0-1.288-.712-2.187-2.08-2.187v.005zm8.602 5.447h-.595l-3.122-6.492H27l1.99 4.45 1.993-4.45h1.448l-3.143 6.492zm8.028.078c-2.096 0-3.39-1.406-3.39-3.349 0-1.972 1.298-3.351 3.39-3.351 2.091 0 3.389 1.38 3.389 3.351 0 1.943-1.288 3.35-3.39 3.35zm0-5.525c-1.359 0-2.071.892-2.071 2.182s.712 2.16 2.07 2.16c1.359 0 2.083-.872 2.083-2.16 0-1.288-.714-2.182-2.082-2.182zm8.355.075v5.323h-1.25V17.75h-2.32v-1.12h5.889v1.12h-2.32zm7.099 5.45c-1.783 0-2.696-.613-2.696-2.318V16.63h4.689v1.17H51.33v1.407h3.181v1.17H51.33v.535c0 .87.474 1.1 1.495 1.1.651.01 1.302-.04 1.943-.15v1.144a9.19 9.19 0 01-1.992.19l-.006.004zm7.17 0c-1.773 0-2.497-.684-2.497-2.377V16.63h1.25v4.207c0 .882.316 1.17 1.333 1.17.66.001 1.32-.045 1.974-.14v1.144c-.68.134-1.37.198-2.063.19l.004-.002z"/></svg>